<svg aria-hidden="true" style="position: absolute; width: 0; height: 0; overflow: hidden;" version="1.1" xmlns="http://www.w3.org/2000/svg" xmlns:xlink="http://www.w3.org/1999/xlink">
<defs>
<symbol id="icon-area-chart" viewBox="0 0 32 28">
<path d="M32 24v2h-32v-24h2v22h30zM26 8l4 14h-26v-9l7-9 9 9z"></path>
</symbol>
<symbol id="icon-gmail" viewBox="0 0 32 32">
<path fill="#d14836" style="fill: var(--color1, #d14836)" d="M32 6v20c0 1.133-0.867 2-2 2h-2v-18.151l-12 8.617-12-8.617v18.151h-2c-1.135 0-2-0.867-2-2v-20c0-0.567 0.216-1.067 0.575-1.424 0.359-0.363 0.86-0.576 1.425-0.576h0.667l13.333 9.667 13.333-9.667h0.667c0.567 0 1.067 0.216 1.425 0.576 0.36 0.357 0.575 0.857 0.575 1.424z"></path>
</symbol>
<symbol id="icon-twitter" viewBox="0 0 32 32">
<path fill="#1da1f2" style="fill: var(--color2, #1da1f2)" d="M31.939 6.092c-1.18 0.519-2.44 0.872-3.767 1.033 1.352-0.815 2.392-2.099 2.884-3.631-1.268 0.74-2.673 1.279-4.169 1.579-1.195-1.279-2.897-2.079-4.788-2.079-3.623 0-6.56 2.937-6.56 6.556 0 0.52 0.060 1.020 0.169 1.499-5.453-0.257-10.287-2.876-13.521-6.835-0.569 0.963-0.888 2.081-0.888 3.3 0 2.28 1.16 4.284 2.917 5.461-1.076-0.035-2.088-0.331-2.971-0.821v0.081c0 3.18 2.257 5.832 5.261 6.436-0.551 0.148-1.132 0.228-1.728 0.228-0.419 0-0.82-0.040-1.221-0.115 0.841 2.604 3.26 4.503 6.139 4.556-2.24 1.759-5.079 2.807-8.136 2.807-0.52 0-1.039-0.031-1.56-0.089 2.919 1.859 6.357 2.945 10.076 2.945 12.072 0 18.665-9.995 18.665-18.648 0-0.279 0-0.56-0.020-0.84 1.281-0.919 2.4-2.080 3.28-3.397z"></path>
</symbol>
<symbol id="icon-linkedin" viewBox="0 0 32 32">
<path fill="#0077b5" style="fill: var(--color3, #0077b5)" d="M27.263 27.269h-4.739v-7.425c0-1.771-0.036-4.049-2.469-4.049-2.471 0-2.848 1.927-2.848 3.919v7.556h-4.739v-15.269h4.552v2.081h0.061c0.636-1.2 2.183-2.467 4.493-2.467 4.801 0 5.689 3.16 5.689 7.273zM7.116 9.911c-1.525 0-2.751-1.235-2.751-2.753 0-1.517 1.227-2.751 2.751-2.751 1.52 0 2.752 1.233 2.752 2.751 0 1.519-1.233 2.753-2.752 2.753zM9.492 27.269h-4.752v-15.269h4.752zM29.633 0h-27.272c-1.305 0-2.361 1.032-2.361 2.305v27.389c0 1.275 1.056 2.305 2.361 2.305h27.268c1.304 0 2.371-1.031 2.371-2.305v-27.389c0-1.273-1.067-2.305-2.371-2.305z"></path>
</symbol>
<symbol id="icon-facebook" viewBox="0 0 32 32">
<path fill="#1877f2" style="fill: var(--color4, #1877f2)" d="M31.997 15.999c0-8.836-7.163-15.999-15.999-15.999s-15.999 7.163-15.999 15.999c0 7.985 5.851 14.604 13.499 15.804v-11.18h-4.062v-4.625h4.062v-3.525c0-4.010 2.389-6.225 6.043-6.225 1.75 0 3.581 0.313 3.581 0.313v3.937h-2.017c-1.987 0-2.607 1.233-2.607 2.498v3.001h4.437l-0.709 4.625h-3.728v11.18c7.649-1.2 13.499-7.819 13.499-15.804z"></path>
</symbol>
<symbol id="icon-sass" viewBox="0 0 32 32">
<path fill="#c69" style="fill: var(--color5, #c69)" d="M16 0c8.836 0 16 7.164 16 16s-7.164 16-16 16-16-7.164-16-16 7.164-16 16-16zM12.82 21.331c0.233 0.86 0.208 1.664-0.032 2.389l-0.087 0.24c-0.032 0.081-0.069 0.16-0.104 0.235-0.187 0.387-0.435 0.747-0.74 1.080-0.931 1.012-2.229 1.396-2.787 1.073-0.6-0.349-0.301-1.78 0.779-2.92 1.161-1.224 2.827-2.012 2.827-2.012v-0.004zM26.035 6.849c-0.723-2.844-5.436-3.779-9.896-2.193-2.652 0.943-5.525 2.424-7.591 4.356-2.457 2.295-2.848 4.295-2.687 5.131 0.569 2.948 4.609 4.876 6.271 6.307v0.008c-0.489 0.24-4.075 2.039-4.915 3.9-0.9 1.96 0.14 3.361 0.82 3.54 2.1 0.581 4.26-0.48 5.42-2.199 1.12-1.681 1.021-3.841 0.539-4.901 0.661-0.18 1.44-0.26 2.44-0.139 2.801 0.32 3.361 2.080 3.24 2.8-0.12 0.719-0.697 1.139-0.899 1.259-0.2 0.121-0.26 0.16-0.241 0.241 0.020 0.12 0.121 0.12 0.28 0.1 0.22-0.040 1.461-0.6 1.521-1.961 0.060-1.72-1.581-3.639-4.5-3.6-1.2 0.021-1.961 0.121-2.5 0.341-0.040-0.060-0.081-0.1-0.14-0.14-1.8-1.94-5.14-3.3-5-5.88 0.040-0.94 0.38-3.419 6.4-6.419 4.94-2.461 8.881-1.78 9.561-0.28 0.977 2.139-2.101 6.12-7.241 6.699-1.96 0.22-2.98-0.539-3.241-0.82-0.279-0.3-0.319-0.32-0.419-0.259-0.16 0.080-0.060 0.34 0 0.5 0.16 0.4 0.78 1.1 1.861 1.46 0.939 0.3 3.24 0.479 6-0.6 3.099-1.199 5.519-4.54 4.819-7.34z"></path>
</symbol>
<symbol id="icon-javascript" viewBox="0 0 32 32">
<path fill="#f7df1e" style="fill: var(--color6, #f7df1e)" d="M0 0h32v32h-32zM29.379 24.368c-0.233-1.46-1.184-2.687-4.004-3.831-0.981-0.46-2.072-0.78-2.396-1.52-0.121-0.44-0.14-0.68-0.061-0.94 0.2-0.861 1.22-1.12 2.020-0.88 0.52 0.16 1 0.56 1.301 1.2 1.379-0.901 1.379-0.901 2.34-1.5-0.36-0.56-0.539-0.801-0.781-1.040-0.84-0.94-1.959-1.42-3.779-1.379l-0.94 0.119c-0.901 0.22-1.76 0.7-2.28 1.34-1.52 1.721-1.081 4.721 0.759 5.961 1.82 1.36 4.481 1.659 4.821 2.94 0.32 1.56-1.16 2.060-2.621 1.88-1.081-0.24-1.68-0.781-2.34-1.781l-2.44 1.401c0.28 0.64 0.6 0.919 1.080 1.479 2.32 2.341 8.12 2.221 9.161-1.339 0.039-0.12 0.32-0.94 0.099-2.2zM17.401 14.708h-2.997c0 2.584-0.012 5.152-0.012 7.74 0 1.643 0.084 3.151-0.184 3.615-0.44 0.919-1.573 0.801-2.088 0.64-0.528-0.261-0.796-0.621-1.107-1.14-0.084-0.14-0.147-0.261-0.169-0.261l-2.433 1.5c0.407 0.84 1 1.563 1.765 2.023 1.14 0.68 2.672 0.9 4.276 0.54 1.044-0.301 1.944-0.921 2.415-1.881 0.68-1.24 0.536-2.76 0.529-4.461 0.016-2.739 0-5.479 0-8.239z"></path>
</symbol>
<symbol id="icon-css3" viewBox="0 0 32 32">
<path fill="#1572b6" style="fill: var(--color7, #1572b6)" d="M2 0h28l-2.547 28.751-11.484 3.249-11.42-3.251zM24.787 5.884l-17.573-0.004 0.284 3.496 13.5 0.003-0.34 3.621h-8.853l0.32 3.431h8.243l-0.488 4.697-3.88 1.072-3.941-1.080-0.251-2.813h-3.48l0.387 5.14 7.287 2.271 7.164-2.040z"></path>
</symbol>
<symbol id="icon-html5" viewBox="0 0 32 32">
<path fill="#e34f26" style="fill: var(--color8, #e34f26)" d="M2 0h28l-2.547 28.751-11.484 3.249-11.419-3.251zM11.375 13l-0.309-3.624 13.412 0.004 0.307-3.496-17.568-0.004 0.931 10.68h12.168l-0.435 4.568-3.88 1.072-3.94-1.080-0.251-2.813h-3.479l0.44 5.561 7.229 1.933 7.172-1.924 0.992-10.876z"></path>
</symbol>
<symbol id="icon-local_offer" viewBox="0 0 24 24">
<path d="M5.484 6.984q0.609 0 1.055-0.445t0.445-1.055-0.445-1.055-1.055-0.445-1.055 0.445-0.445 1.055 0.445 1.055 1.055 0.445zM21.422 11.578q0.563 0.563 0.563 1.406t-0.563 1.406l-7.031 7.031q-0.563 0.563-1.406 0.563t-1.406-0.563l-9-9q-0.563-0.563-0.563-1.406v-7.031q0-0.797 0.586-1.383t1.383-0.586h7.031q0.844 0 1.406 0.563z"></path>
</symbol>
<symbol id="icon-home" viewBox="0 0 24 24">
<path d="M2.386 8.211c-0.236 0.184-0.386 0.469-0.386 0.789v11c0 0.828 0.337 1.58 0.879 2.121s1.293 0.879 2.121 0.879h14c0.828 0 1.58-0.337 2.121-0.879s0.879-1.293 0.879-2.121v-11c-0.001-0.3-0.134-0.593-0.386-0.789l-9-7c-0.358-0.275-0.861-0.285-1.228 0zM16 21v-9c0-0.552-0.448-1-1-1h-6c-0.552 0-1 0.448-1 1v9h-3c-0.276 0-0.525-0.111-0.707-0.293s-0.293-0.431-0.293-0.707v-10.511l8-6.222 8 6.222v10.511c0 0.276-0.111 0.525-0.293 0.707s-0.431 0.293-0.707 0.293zM10 21v-8h4v8z"></path>
</symbol>
<symbol id="icon-map-pin" viewBox="0 0 24 24">
<path d="M22 10c0-2.761-1.12-5.263-2.929-7.071s-4.31-2.929-7.071-2.929-5.263 1.12-7.071 2.929-2.929 4.31-2.929 7.071c0 0.569 0.053 1.128 0.15 1.676 0.274 1.548 0.899 3.004 1.682 4.32 2.732 4.591 7.613 7.836 7.613 7.836 0.331 0.217 0.765 0.229 1.109 0 0 0 4.882-3.245 7.613-7.836 0.783-1.316 1.408-2.772 1.682-4.32 0.098-0.548 0.151-1.107 0.151-1.676zM20 10c0 0.444-0.041 0.887-0.119 1.328-0.221 1.25-0.737 2.478-1.432 3.646-1.912 3.214-5.036 5.747-6.369 6.74-1.398-0.916-4.588-3.477-6.53-6.74-0.695-1.168-1.211-2.396-1.432-3.646-0.077-0.441-0.118-0.884-0.118-1.328 0-2.209 0.894-4.208 2.343-5.657s3.448-2.343 5.657-2.343 4.208 0.894 5.657 2.343 2.343 3.448 2.343 5.657zM16 10c0-1.104-0.449-2.106-1.172-2.828s-1.724-1.172-2.828-1.172-2.106 0.449-2.828 1.172-1.172 1.724-1.172 2.828 0.449 2.106 1.172 2.828 1.724 1.172 2.828 1.172 2.106-0.449 2.828-1.172 1.172-1.724 1.172-2.828zM14 10c0 0.553-0.223 1.051-0.586 1.414s-0.861 0.586-1.414 0.586-1.051-0.223-1.414-0.586-0.586-0.861-0.586-1.414 0.223-1.051 0.586-1.414 0.861-0.586 1.414-0.586 1.051 0.223 1.414 0.586 0.586 0.861 0.586 1.414z"></path>
</symbol>
<symbol id="icon-world" viewBox="0 0 32 32">
<path d="M15.5 0c-8.561 0-15.5 6.939-15.5 15.5s6.939 15.5 15.5 15.5 15.5-6.939 15.5-15.5-6.939-15.5-15.5-15.5zM28.975 15h-5.996c-0.055-2.215-0.449-4.331-1.148-6.268 1.35-0.563 2.598-1.312 3.736-2.197 2.023 2.271 3.288 5.22 3.408 8.465zM14.947 28.972c-1.662-1.384-3.056-3.181-4.076-5.268 1.309-0.409 2.696-0.633 4.129-0.679v5.949c-0.018 0-0.035-0.001-0.053-0.002zM16.051 2.028c1.886 1.57 3.425 3.673 4.466 6.126-1.426 0.487-2.941 0.77-4.518 0.82v-6.949c0.019 0.001 0.035 0.002 0.052 0.003zM17.717 2.198c2.76 0.459 5.236 1.748 7.164 3.614-1.047 0.803-2.191 1.483-3.428 1.998-0.91-2.157-2.187-4.064-3.736-5.612zM15 2.025v6.949c-1.577-0.051-3.093-0.333-4.518-0.82 1.041-2.453 2.58-4.556 4.466-6.126 0.018-0.001 0.034-0.002 0.052-0.003zM9.546 7.811c-1.235-0.515-2.38-1.195-3.427-1.998 1.927-1.866 4.404-3.155 7.164-3.614-1.55 1.547-2.826 3.454-3.737 5.612zM10.105 9.076c1.542 0.535 3.185 0.847 4.895 0.899v5.025h-5.979c0.054-2.094 0.425-4.095 1.084-5.924zM15 16v6.025c-1.577 0.048-3.102 0.306-4.539 0.769-0.866-2.062-1.377-4.359-1.44-6.794h5.979zM13.283 28.802c-2.473-0.411-4.719-1.488-6.545-3.052 0.985-0.683 2.050-1.261 3.188-1.7 0.872 1.808 2.013 3.413 3.357 4.752zM16 28.975v-5.949c1.432 0.046 2.82 0.27 4.129 0.679-1.021 2.087-2.414 3.884-4.076 5.268-0.017 0-0.035 0.001-0.053 0.002zM21.074 24.050c1.137 0.439 2.201 1.018 3.188 1.7-1.826 1.563-4.072 2.641-6.545 3.052 1.344-1.339 2.484-2.944 3.357-4.752zM20.539 22.794c-1.438-0.463-2.963-0.721-4.539-0.769v-6.025h5.979c-0.063 2.435-0.575 4.732-1.44 6.794zM16 15v-5.025c1.709-0.052 3.352-0.363 4.895-0.898 0.658 1.829 1.029 3.83 1.084 5.924h-5.979zM5.434 6.535c1.138 0.885 2.386 1.634 3.735 2.197-0.699 1.937-1.093 4.053-1.148 6.268h-5.996c0.12-3.245 1.385-6.194 3.409-8.465zM2.025 16h5.996c0.062 2.555 0.596 4.968 1.503 7.137-1.267 0.494-2.448 1.152-3.538 1.931-2.348-2.337-3.83-5.532-3.961-9.068zM25.014 25.067c-1.090-0.778-2.271-1.437-3.539-1.931 0.908-2.169 1.441-4.582 1.504-7.137h5.996c-0.131 3.537-1.614 6.732-3.961 9.068z"></path>
</symbol>
<symbol id="icon-calendar" viewBox="0 0 32 32">
<path d="M27 31h-22c-1.104 0-2-0.896-2-2v-22c0-1.105 0.896-2 2-2h2v1c0 1.657 1.343 3 3 3s3-1.343 3-3v-1h6v1c0 1.657 1.344 3 3 3s3-1.343 3-3v-1h2c1.104 0 2 0.895 2 2v22c0 1.104-0.896 2-2 2zM27 12h-22v17h22v-17zM10 17h-3v-3h3v3zM10 22h-3v-3h3v3zM10 27h-3v-3h3v3zM15 17h-3v-3h3v3zM15 22h-3v-3h3v3zM15 27h-3v-3h3v3zM20 17h-3v-3h3v3zM20 22h-3v-3h3v3zM20 27h-3v-3h3v3zM25 17h-3v-3h3v3zM25 22h-3v-3h3v3zM25 27h-3v-3h3v3zM21.969 8c-1.088 0-1.969-0.882-1.969-1.969v-2.062c0-1.088 0.881-1.969 1.969-1.969s1.969 0.881 1.969 1.969v2.062c0 1.087-0.881 1.969-1.969 1.969zM9.969 8c-1.088 0-1.969-0.882-1.969-1.969v-2.062c0-1.088 0.881-1.969 1.969-1.969s1.969 0.881 1.969 1.969v2.062c0 1.087-0.882 1.969-1.969 1.969z"></path>
</symbol>
<symbol id="icon-chart" viewBox="0 0 32 32">
<path d="M16.998 14.942c0 0 0.096-11.986 0-11.986 6.896 0 11.986 5.090 11.986 11.986 0 0.038-11.986 0-11.986 0zM27.986 17.402c0 7.171-5.814 12.985-12.985 12.985-7.172 0-12.985-5.814-12.985-12.985 0-7.172 5.813-12.985 12.985-12.985 0.337 0 0.668 0.024 0.999 0.050v11.474h11.908c0.050 0.46 0.078 0.988 0.078 1.461zM26.925 17.002h-11.924v-11.586c-6.62 0-11.986 5.367-11.986 11.987s5.366 11.985 11.986 11.985 11.986-5.365 11.986-11.985c0-1.29-0.062-0.401-0.062-0.401z"></path>
</symbol>
<symbol id="icon-location" viewBox="0 0 32 32">
<path d="M11.163 11.554c0-2.655 2.166-4.807 4.837-4.807s4.837 2.152 4.837 4.807-2.166 4.806-4.837 4.806-4.837-2.152-4.837-4.806zM7.777 12.154c0 2.011 2.454 6.25 2.454 6.25l5.769 9.614 5.438-9.613c0 0 2.785-4.27 2.785-6.25 0-4.513-3.682-8.171-8.223-8.171s-8.223 3.657-8.223 8.17z"></path>
</symbol>
<symbol id="icon-medal" viewBox="0 0 32 32">
<path d="M9.193 20.037c-1.25 0-1.416-0.584-1.416-0.584l-4.875 9.58 3.909-0.438 2.162 3.25c0 0 4.5-9.393 4.5-9.33-2.33-0.056-1.405-2.415-4.28-2.478zM20.182 21.065c0.607-1.020 1.504-1.537 2.691-1.553s1.787-0.617 1.803-1.804c0.016-1.186 0.533-2.083 1.553-2.689s1.24-1.428 0.66-2.463-0.58-2.071 0-3.106 0.359-1.856-0.66-2.463-1.537-1.503-1.553-2.69c-0.016-1.186-0.617-1.787-1.803-1.803-1.188-0.016-2.084-0.533-2.691-1.553-0.605-1.020-1.428-1.24-2.463-0.66s-2.070 0.58-3.105 0-1.856-0.359-2.463 0.66c-0.607 1.020-1.503 1.537-2.69 1.553s-1.787 0.618-1.803 1.804c-0.016 1.187-0.533 2.083-1.553 2.69s-1.24 1.428-0.66 2.463c0.58 1.035 0.58 2.071 0 3.106s-0.359 1.856 0.66 2.463c1.020 0.607 1.537 1.504 1.553 2.689 0.016 1.187 0.617 1.788 1.803 1.804s2.083 0.533 2.69 1.553c0.606 1.020 1.428 1.239 2.463 0.66s2.070-0.579 3.105 0 1.857 0.359 2.463-0.661zM17.518 16.004h-1.781v-6.726c-0.651 0.609-1.42 1.059-2.305 1.351v-1.617c0.465-0.152 0.971-0.44 1.517-0.865s0.92-0.92 1.123-1.486h1.446v9.343zM24.16 19.828c-3.562 0.375-2.838 1.256-3.65 1.943-0.938 1-2.107 0.807-2.107 0.807l5.5 9.455 1.35-3.5 3.846 0.5-4.939-9.205z"></path>
</symbol>
<symbol id="icon-key" viewBox="0 0 32 32">
<path d="M17.837 17.542l-10.049 10.049c-0.778 0.778-2.043 0.776-2.824-0.005s-0.783-2.045-0.005-2.823l0.764-0.764-2.165-2.166c-0.391-0.39-0.392-1.022-0.003-1.412 0.39-0.39 1.021-0.388 1.412 0.003l2.166 2.166 0.705-0.705-0.752-0.752c-0.391-0.391-0.392-1.022-0.002-1.412 0.389-0.389 1.021-0.389 1.412 0.002l0.751 0.752 0.705-0.705-2.166-2.166c-0.391-0.391-0.392-1.021-0.002-1.411 0.389-0.39 1.021-0.389 1.412 0.002l2.165 2.166 3.649-3.649c-2.365-3.295-2.659-7.228-0.48-9.406 2.53-2.53 7.431-1.732 10.945 1.783s4.313 8.415 1.782 10.945c-2.181 2.181-6.122 1.882-9.42-0.492zM23.349 9.202c-1.562-1.562-3.618-2.040-4.591-1.066s-0.496 3.028 1.066 4.591c1.562 1.562 3.617 2.039 4.591 1.066s0.495-3.029-1.066-4.591z"></path>
</symbol>
<symbol id="icon-locked" viewBox="0 0 32 32">
<path d="M4 31v-16h3v-5c0-4.418 3.581-8 8-8h1c4.418 0 8 3.582 8 8v5h3v16h-23zM14.744 22.787l-0.744 5.213h3l-0.745-5.213c0.729-0.298 1.245-1.013 1.245-1.85 0-1.104-0.896-2-2-2-1.105 0-2 0.896-2 2 0 0.837 0.515 1.552 1.244 1.85zM21 10.5c0-3.038-2.463-5.5-5.5-5.5-3.038 0-5.5 2.462-5.5 5.5v4.5h11v-4.5z"></path>
</symbol>
<symbol id="icon-discout" viewBox="0 0 32 32">
<path d="M31.062 16c0 2.125-1.227 3.927-3.050 4.642v2.33c0 0.55-0.446 0.996-0.995 0.996h-23.033c-0.551 0-0.996-0.446-0.996-0.996v-2.33c-1.824-0.715-3.050-2.517-3.050-4.642s1.227-3.927 3.051-4.642v-2.33c0-0.551 0.445-0.996 0.996-0.996h23.033c0.549 0 0.995 0.445 0.995 0.996v2.33c1.823 0.715 3.049 2.517 3.049 4.642zM11.952 16h-3.984v0.996h3.984v-0.996zM16.682 12.604c-0.281-0.309-0.667-0.463-1.157-0.463-0.487 0-0.871 0.154-1.151 0.463-0.281 0.308-0.422 0.782-0.422 1.422 0 0.643 0.141 1.118 0.422 1.427 0.28 0.308 0.481 0.462 0.979 0.462 0.48 0 1.049-0.154 1.33-0.462 0.28-0.309 0.421-0.784 0.421-1.427-0.001-0.64-0.142-1.115-0.422-1.422zM20.070 11.985l-5.11 8.022h1.012l5.085-8.022h-0.987zM21.661 16.587c-0.28-0.308-0.667-0.462-1.157-0.462-0.486 0-0.871 0.154-1.152 0.462-0.28 0.309-0.42 0.782-0.42 1.422 0 0.643 0.14 1.119 0.42 1.427 0.281 0.309 0.67 0.463 1.168 0.463 0.48 0 0.861-0.154 1.142-0.463 0.28-0.308 0.421-0.784 0.421-1.427-0.001-0.64-0.142-1.113-0.422-1.422zM20.495 19.128c-0.144 0-0.256-0.061-0.337-0.181-0.107-0.157-0.161-0.469-0.161-0.936s0.054-0.78 0.161-0.94c0.078-0.117 0.19-0.177 0.337-0.177s0.261 0.060 0.342 0.177c0.104 0.16 0.156 0.474 0.156 0.94s-0.054 0.78-0.161 0.94c-0.078 0.118-0.19 0.177-0.337 0.177zM15.516 15.145c-0.144 0-0.256-0.061-0.337-0.182-0.107-0.157-0.161-0.469-0.161-0.936s0.054-0.78 0.161-0.94c0.078-0.117 0.19-0.176 0.337-0.176s0.26 0.059 0.342 0.176c0.104 0.16 0.156 0.474 0.156 0.94s-0.054 0.78-0.161 0.94c-0.079 0.118-0.191 0.178-0.337 0.178z"></path>
</symbol>
<symbol id="icon-paperplane" viewBox="0 0 32 32">
<path d="M3.363 4.414l4.875 19.348 9.467-3.018-8.448-10.298 10.902 9.56 8.853-2.77-25.649-12.822zM18.004 27.586v-5.324l-3.116 0.926 3.116 4.398z"></path>
</symbol>
<symbol id="icon-tags" viewBox="0 0 32 32">
<path d="M25.994 16.144l-12.225-12.225-11.769 0.045 0.018 10.831 12.662 12.662c0.794 0.795 2.072 0.806 2.854 0.024l8.484-8.485c0.781-0.781 0.771-2.058-0.024-2.852zM7.081 10.952c-1.104 0-2-0.896-2-2s0.896-2 2-2c1.105 0 2 0.896 2 2s-0.895 2-2 2zM28.846 16.168l-12.225-12.225-1.471 0.005 12.27 12.207c0.795 0.795 0.805 2.071 0.023 2.853l-8.484 8.485c-0.207 0.207-0.451 0.354-0.709 0.451 0.721 0.277 1.561 0.135 2.135-0.438l8.486-8.485c0.781-0.782 0.77-2.059-0.025-2.853z"></path>
</symbol>
<symbol id="icon-home1" viewBox="0 0 32 32">
<path d="M32 18.451l-16-12.42-16 12.42v-5.064l16-12.42 16 12.42zM28 18v12h-8v-8h-8v8h-8v-12l12-9z"></path>
</symbol>
<symbol id="icon-home2" viewBox="0 0 32 32">
<path d="M16 1l-16 16 3 3 3-3v13h8v-6h4v6h8v-13l3 3 3-3-16-16zM16 14c-1.105 0-2-0.895-2-2s0.895-2 2-2c1.105 0 2 0.895 2 2s-0.895 2-2 2z"></path>
</symbol>
<symbol id="icon-home3" viewBox="0 0 32 32">
<path d="M32 19l-6-6v-9h-4v5l-6-6-16 16v1h4v10h10v-6h4v6h10v-10h4z"></path>
</symbol>
<symbol id="icon-users" viewBox="0 0 36 32">
<path d="M24 24.082v-1.649c2.203-1.241 4-4.337 4-7.432 0-4.971 0-9-6-9s-6 4.029-6 9c0 3.096 1.797 6.191 4 7.432v1.649c-6.784 0.555-12 3.888-12 7.918h28c0-4.030-5.216-7.364-12-7.918z"></path>
<path d="M10.225 24.854c1.728-1.13 3.877-1.989 6.243-2.513-0.47-0.556-0.897-1.176-1.265-1.844-0.95-1.726-1.453-3.627-1.453-5.497 0-2.689 0-5.228 0.956-7.305 0.928-2.016 2.598-3.265 4.976-3.734-0.529-2.39-1.936-3.961-5.682-3.961-6 0-6 4.029-6 9 0 3.096 1.797 6.191 4 7.432v1.649c-6.784 0.555-12 3.888-12 7.918h8.719c0.454-0.403 0.956-0.787 1.506-1.146z"></path>
</symbol>
<symbol id="icon-star-empty" viewBox="0 0 32 32">
<path d="M32 12.408l-11.056-1.607-4.944-10.018-4.944 10.018-11.056 1.607 8 7.798-1.889 11.011 9.889-5.199 9.889 5.199-1.889-11.011 8-7.798zM16 23.547l-6.983 3.671 1.334-7.776-5.65-5.507 7.808-1.134 3.492-7.075 3.492 7.075 7.807 1.134-5.65 5.507 1.334 7.776-6.983-3.671z"></path>
</symbol>
<symbol id="icon-star-half" viewBox="0 0 32 32">
<path d="M32 12.408l-11.056-1.607-4.944-10.018-4.944 10.018-11.056 1.607 8 7.798-1.889 11.011 9.889-5.199 9.889 5.199-1.889-11.011 8-7.798zM16 23.547l-0.029 0.015 0.029-17.837 3.492 7.075 7.807 1.134-5.65 5.507 1.334 7.776-6.983-3.671z"></path>
</symbol>
<symbol id="icon-heart" viewBox="0 0 32 32">
<path d="M23.6 2c-3.363 0-6.258 2.736-7.599 5.594-1.342-2.858-4.237-5.594-7.601-5.594-4.637 0-8.4 3.764-8.4 8.401 0 9.433 9.516 11.906 16.001 21.232 6.13-9.268 15.999-12.1 15.999-21.232 0-4.637-3.763-8.401-8.4-8.401z"></path>
</symbol>
<symbol id="icon-github" viewBox="0 0 32 32">
<path d="M16 0.395c-8.836 0-16 7.163-16 16 0 7.069 4.585 13.067 10.942 15.182 0.8 0.148 1.094-0.347 1.094-0.77 0-0.381-0.015-1.642-0.022-2.979-4.452 0.968-5.391-1.888-5.391-1.888-0.728-1.849-1.776-2.341-1.776-2.341-1.452-0.993 0.11-0.973 0.11-0.973 1.606 0.113 2.452 1.649 2.452 1.649 1.427 2.446 3.743 1.739 4.656 1.33 0.143-1.034 0.558-1.74 1.016-2.14-3.554-0.404-7.29-1.777-7.29-7.907 0-1.747 0.625-3.174 1.649-4.295-0.166-0.403-0.714-2.030 0.155-4.234 0 0 1.344-0.43 4.401 1.64 1.276-0.355 2.645-0.532 4.005-0.539 1.359 0.006 2.729 0.184 4.008 0.539 3.054-2.070 4.395-1.64 4.395-1.64 0.871 2.204 0.323 3.831 0.157 4.234 1.026 1.12 1.647 2.548 1.647 4.295 0 6.145-3.743 7.498-7.306 7.895 0.574 0.497 1.085 1.47 1.085 2.963 0 2.141-0.019 3.864-0.019 4.391 0 0.426 0.288 0.925 1.099 0.768 6.354-2.118 10.933-8.113 10.933-15.18 0-8.837-7.164-16-16-16z"></path>
</symbol>
<symbol id="icon-linkedin1" viewBox="0 0 32 32">
<path d="M29 0h-26c-1.65 0-3 1.35-3 3v26c0 1.65 1.35 3 3 3h26c1.65 0 3-1.35 3-3v-26c0-1.65-1.35-3-3-3zM12 26h-4v-14h4v14zM10 10c-1.106 0-2-0.894-2-2s0.894-2 2-2c1.106 0 2 0.894 2 2s-0.894 2-2 2zM26 26h-4v-8c0-1.106-0.894-2-2-2s-2 0.894-2 2v8h-4v-14h4v2.481c0.825-1.131 2.087-2.481 3.5-2.481 2.488 0 4.5 2.238 4.5 5v9z"></path>
</symbol>
<symbol id="icon-html-five" viewBox="0 0 32 32">
<path d="M1.892 0l2.567 28.801 11.524 3.199 11.554-3.204 2.572-28.796h-28.216zM24.52 9.42h-13.517l0.322 3.617h12.874l-0.97 10.844-7.245 2.008-7.237-2.008-0.495-5.547h3.547l0.252 2.82 3.933 1.060 0.009-0.002 3.935-1.062 0.408-4.58h-12.242l-0.953-10.681h17.694l-0.316 3.532z"></path>
</symbol>
<symbol id="icon-html-five2" viewBox="0 0 32 32">
<path d="M1.892 0l2.567 28.801 11.524 3.199 11.554-3.204 2.572-28.796h-28.216zM25.336 26.963l-9.288 2.574v0.015l-0.024-0.007-0.024 0.007v-0.015l-9.288-2.574-2.195-24.609h23.015l-2.195 24.609zM20.336 16.569l-0.408 4.58-3.944 1.065-3.933-1.060-0.252-2.82h-3.547l0.495 5.547 7.252 2.006 7.229-2.006 0.97-10.844h-12.874l-0.322-3.617h13.517l0.316-3.532h-17.694l0.953 10.681z"></path>
</symbol>
<symbol id="icon-css31" viewBox="0 0 32 32">
<path d="M4.762 1.516l-1.074 5.373h21.867l-0.684 3.47h-21.881l-1.059 5.372h21.865l-1.219 6.127-8.813 2.919-7.638-2.919 0.523-2.658h-5.372l-1.278 6.448 12.632 4.834 14.563-4.834 4.805-24.133z"></path>
</symbol>
</defs>
</svg>
